<svg width="24" height="24" viewBox="0 0 24 24" fill="none" xmlns="http://www.w3.org/2000/svg">
<g id="camera">
<g id="vuesax/bold/camera">
<g id="Group">
<path id="Vector" d="M18 6C17.39 6 16.83 5.65 16.55 5.11L15.83 3.66C15.37 2.75 14.17 2 13.15 2H10.86C9.83002 2 8.63001 2.75 8.17001 3.66L7.45001 5.11C7.17001 5.65 6.61001 6 6.00002 6C3.83001 6 2.11001 7.83 2.25001 9.99L2.77001 18.25C2.89001 20.31 4.00002 22 6.76002 22H17.24C20 22 21.1 20.31 21.23 18.25L21.75 9.99C21.89 7.83 20.17 6 18 6ZM10.5 7.25H13.5C13.91 7.25 14.25 7.59 14.25 8C14.25 8.41 13.91 8.75 13.5 8.75H10.5C10.09 8.75 9.75001 8.41 9.75001 8C9.75001 7.59 10.09 7.25 10.5 7.25ZM12 18.12C10.14 18.12 8.62001 16.61 8.62001 14.74C8.62001 12.87 10.13 11.36 12 11.36C13.87 11.36 15.38 12.87 15.38 14.74C15.38 16.61 13.86 18.12 12 18.12Z" fill="#292929"/>
</g>
</g>
</g>
</svg>
